<svg xmlns="http://www.w3.org/2000/svg" version="1.1" xmlns:xlink="http://www.w3.org/1999/xlink" xmlns:svgjs="http://svgjs.dev/svgjs" width="2000" height="2000" viewBox="0 0 2000 2000"><g transform="matrix(1,0,0,1,0.8097165991902102,0.8097165991902102)"><svg viewBox="0 0 247 247" data-background-color="#ffffff" preserveAspectRatio="xMidYMid meet" height="2000" width="2000" xmlns="http://www.w3.org/2000/svg" xmlns:xlink="http://www.w3.org/1999/xlink"><g id="tight-bounds" transform="matrix(1,0,0,1,-0.09999999999999432,-0.09999999999999432)"><svg viewBox="0 0 247.2 247.2" height="247.2" width="247.2"><g><svg viewBox="0 0 247.20000000000002 247.20000000000002" height="247.2" width="247.2"><g><svg viewBox="0 0 247.20000000000002 247.20000000000002" height="247.20000000000002" width="247.20000000000002"><g id="textblocktransform"><svg viewBox="0 0 247.20000000000002 247.20000000000002" height="247.20000000000002" width="247.20000000000002" id="textblock"><g><svg viewBox="0 0 247.20000000000002 247.20000000000002" height="247.20000000000002" width="247.20000000000002"><g transform="matrix(1,0,0,1,0,0)"><svg width="247.20000000000002" viewBox="0 -50 43.75 43.75" height="247.20000000000002" data-palette-color="#7a26c1"><path d="M37.5-6.25L0-6.25 0-50 37.5-50 37.5-43.75 43.75-43.75 43.75-31.25 37.5-31.25 37.5-25 43.75-25 43.75-12.5 37.5-12.5 37.5-6.25ZM12.5-43.75L12.5-31.25 31.25-31.25 31.25-43.75 12.5-43.75ZM12.5-25L12.5-12.5 31.25-12.5 31.25-25 12.5-25Z" opacity="1" transform="matrix(1,0,0,1,0,0)" fill="#ffffff" class="wordmark-text-0" data-fill-palette-color="primary" id="text-0"></path></svg></g></svg></g></svg></g></svg></g></svg></g><defs></defs></svg><rect width="247.2" height="247.2" fill="none" stroke="none" visibility="hidden"></rect></g></svg></g></svg>